<?xml version="1.0" encoding="UTF-8" standalone="no"?>
<svg
   xmlns:dc="http://purl.org/dc/elements/1.1/"
   xmlns:cc="http://creativecommons.org/ns#"
   xmlns:rdf="http://www.w3.org/1999/02/22-rdf-syntax-ns#"
   xmlns:svg="http://www.w3.org/2000/svg"
   xmlns="http://www.w3.org/2000/svg"
   xmlns:xlink="http://www.w3.org/1999/xlink"
   xmlns:sodipodi="http://sodipodi.sourceforge.net/DTD/sodipodi-0.dtd"
   height="556.00097"
   id="svg2"
   sodipodi:docname="diagram.svg"
   version="1.1"
   viewBox="0 0 516 444.80078"
   width="645">
  <defs
     id="0">
    <g
       id="2">
      <symbol
         id="o"
         overflow="visible">
        <path
           d="m 1.875,0 0,-9.375 7.5,0 0,9.375 z m 0.234375,-0.234375 7.03125,0 0,-8.90625 -7.03125,0 z m 0,0"
           id="2i"
           stroke="none" />
      </symbol>
      <symbol
         id="p"
         overflow="visible">
        <path
           d="m 3.515625,0 0,-8.921875 -3.1875,0 0,-1.8125 8.53125,0 0,1.8125 -3.1875,0 0,8.921875 z m 0,0"
           id="2j"
           stroke="none" />
      </symbol>
      <symbol
         id="q"
         overflow="visible">
        <path
           d="M 2.609375,-5.40625 0.75,-5.75 c 0.207031,-0.75 0.566406,-1.300781 1.078125,-1.65625 0.507813,-0.363281 1.269531,-0.546875 2.28125,-0.546875 0.925781,0 1.613281,0.109375 2.0625,0.328125 0.445313,0.21875 0.757813,0.496094 0.9375,0.828125 0.1875,0.335937 0.28125,0.949219 0.28125,1.84375 L 7.375,-2.5625 c 0,0.6875 0.03125,1.195312 0.09375,1.515625 C 7.53125,-0.722656 7.65625,-0.375 7.84375,0 L 5.796875,0 C 5.742188,-0.132812 5.679688,-0.335938 5.609375,-0.609375 5.566406,-0.734375 5.539062,-0.8125 5.53125,-0.84375 c -0.355469,0.335938 -0.734375,0.589844 -1.140625,0.765625 -0.398437,0.1640625 -0.820313,0.25 -1.265625,0.25 -0.804688,0 -1.4375,-0.2109375 -1.90625,-0.640625 -0.460938,-0.4375 -0.6875,-0.988281 -0.6875,-1.65625 0,-0.4375 0.101562,-0.828125 0.3125,-1.171875 0.21875,-0.34375 0.515625,-0.601563 0.890625,-0.78125 0.375,-0.1875 0.921875,-0.351563 1.640625,-0.5 0.957031,-0.175781 1.625,-0.34375 2,-0.5 l 0,-0.203125 c 0,-0.394531 -0.101562,-0.675781 -0.296875,-0.84375 -0.199219,-0.164062 -0.570313,-0.25 -1.109375,-0.25 -0.367188,0 -0.652344,0.074219 -0.859375,0.21875 -0.199219,0.136719 -0.367187,0.386719 -0.5,0.75 z M 5.375,-3.734375 c -0.273438,0.085937 -0.695312,0.1875 -1.265625,0.3125 C 3.546875,-3.296875 3.175781,-3.175781 3,-3.0625 2.726562,-2.875 2.59375,-2.632812 2.59375,-2.34375 c 0,0.292969 0.101562,0.542969 0.3125,0.75 0.21875,0.210938 0.492188,0.3125 0.828125,0.3125 0.375,0 0.726563,-0.117188 1.0625,-0.359375 0.25,-0.1875 0.410156,-0.414063 0.484375,-0.6875 0.0625,-0.164063 0.09375,-0.5 0.09375,-1 z m 0,0"
           id="2k"
           stroke="none" />
      </symbol>
      <symbol
         id="r"
         overflow="visible">
        <path
           d="m 7.859375,-5.484375 -2.03125,0.375 c -0.0625,-0.40625 -0.21875,-0.707031 -0.46875,-0.90625 -0.242187,-0.207031 -0.554687,-0.3125 -0.9375,-0.3125 -0.511719,0 -0.921875,0.179687 -1.234375,0.53125 -0.304688,0.34375 -0.453125,0.933594 -0.453125,1.765625 0,0.929688 0.15625,1.585938 0.46875,1.96875 0.3125,0.375 0.726563,0.5625 1.25,0.5625 0.394531,0 0.710937,-0.109375 0.953125,-0.328125 0.25,-0.226563 0.425781,-0.613281 0.53125,-1.15625 l 2.03125,0.34375 C 7.75,-1.710938 7.34375,-1.007812 6.75,-0.53125 6.15625,-0.0625 5.359375,0.171875 4.359375,0.171875 3.222656,0.171875 2.316406,-0.1875 1.640625,-0.90625 0.960938,-1.625 0.625,-2.613281 0.625,-3.875 c 0,-1.289062 0.335938,-2.289062 1.015625,-3 0.675781,-0.71875 1.59375,-1.078125 2.75,-1.078125 0.945313,0 1.703125,0.203125 2.265625,0.609375 0.5625,0.40625 0.960938,1.027344 1.203125,1.859375 z m 0,0"
           id="2l"
           stroke="none" />
      </symbol>
      <symbol
         id="s"
         overflow="visible">
        <path
           d="m 0.59375,-4 c 0,-0.6875 0.164062,-1.347656 0.5,-1.984375 0.34375,-0.632813 0.820312,-1.117187 1.4375,-1.453125 0.625,-0.34375 1.316406,-0.515625 2.078125,-0.515625 1.175781,0 2.140625,0.386719 2.890625,1.15625 0.75,0.761719 1.125,1.726563 1.125,2.890625 0,1.179688 -0.382812,2.152344 -1.140625,2.921875 C 6.722656,-0.210938 5.769531,0.171875 4.625,0.171875 3.90625,0.171875 3.222656,0.0078125 2.578125,-0.3125 1.929688,-0.632812 1.4375,-1.101562 1.09375,-1.71875 0.757812,-2.34375 0.59375,-3.101562 0.59375,-4 Z m 2.109375,0.109375 c 0,0.773437 0.179687,1.367187 0.546875,1.78125 C 3.625,-1.703125 4.078125,-1.5 4.609375,-1.5 5.148438,-1.5 5.601562,-1.703125 5.96875,-2.109375 6.332031,-2.523438 6.515625,-3.125 6.515625,-3.90625 c 0,-0.757812 -0.183594,-1.34375 -0.546875,-1.75 -0.367188,-0.414062 -0.820312,-0.625 -1.359375,-0.625 -0.53125,0 -0.984375,0.210938 -1.359375,0.625 C 2.882812,-5.25 2.703125,-4.660156 2.703125,-3.890625 Z m 0,0"
           id="2m"
           stroke="none" />
      </symbol>
      <symbol
         id="t"
         overflow="visible">
        <path
           d="m 0.359375,-2.21875 2.0625,-0.3125 c 0.082031,0.398438 0.257813,0.699219 0.53125,0.90625 0.269531,0.210938 0.644531,0.3125 1.125,0.3125 0.53125,0 0.929687,-0.097656 1.203125,-0.296875 C 5.457031,-1.742188 5.546875,-1.925781 5.546875,-2.15625 5.546875,-2.3125 5.5,-2.441406 5.40625,-2.546875 5.300781,-2.640625 5.070312,-2.726562 4.71875,-2.8125 3.0625,-3.175781 2.007812,-3.507812 1.5625,-3.8125 0.945312,-4.238281 0.640625,-4.820312 0.640625,-5.5625 c 0,-0.675781 0.265625,-1.242188 0.796875,-1.703125 0.53125,-0.457031 1.351562,-0.6875 2.46875,-0.6875 1.070312,0 1.863281,0.171875 2.375,0.515625 0.519531,0.34375 0.878906,0.859375 1.078125,1.546875 L 5.40625,-5.53125 C 5.320312,-5.832031 5.164062,-6.0625 4.9375,-6.21875 c -0.230469,-0.164062 -0.558594,-0.25 -0.984375,-0.25 -0.542969,0 -0.933594,0.074219 -1.171875,0.21875 -0.15625,0.105469 -0.234375,0.246094 -0.234375,0.421875 0,0.148437 0.066406,0.273437 0.203125,0.375 0.1875,0.136719 0.828125,0.328125 1.921875,0.578125 1.101563,0.25 1.867187,0.554688 2.296875,0.90625 0.4375,0.375 0.65625,0.886719 0.65625,1.53125 0,0.71875 -0.304688,1.335938 -0.90625,1.84375 -0.59375,0.5117188 -1.476562,0.765625 -2.640625,0.765625 -1.0625,0 -1.902344,-0.2109375 -2.515625,-0.640625 -0.617188,-0.425781 -1.015625,-1.007812 -1.203125,-1.75 z m 0,0"
           id="2n"
           stroke="none" />
      </symbol>
      <symbol
         id="u"
         overflow="visible">
        <path
           d="m 3.046875,0 -2.0625,0 0,-7.78125 1.921875,0 0,1.109375 c 0.320312,-0.519531 0.613281,-0.863281 0.875,-1.03125 0.257812,-0.164063 0.554688,-0.25 0.890625,-0.25 0.46875,0 0.921875,0.132813 1.359375,0.390625 l -0.640625,1.796875 c -0.34375,-0.226563 -0.667969,-0.34375 -0.96875,-0.34375 -0.292969,0 -0.539063,0.085937 -0.734375,0.25 C 3.488281,-5.703125 3.332031,-5.414062 3.21875,-5 3.101562,-4.59375 3.046875,-3.726562 3.046875,-2.40625 Z m 0,0"
           id="2o"
           stroke="none" />
      </symbol>
      <symbol
         id="v"
         overflow="visible">
        <path
           d="m 1.078125,-8.828125 0,-1.90625 2.0625,0 0,1.90625 z m 0,8.828125 0,-7.78125 2.0625,0 0,7.78125 z m 0,0"
           id="2p"
           stroke="none" />
      </symbol>
      <symbol
         id="w"
         overflow="visible">
        <path
           d="m 1.015625,-7.78125 1.921875,0 0,1.140625 c 0.25,-0.382813 0.582031,-0.695313 1,-0.9375 0.425781,-0.25 0.898438,-0.375 1.421875,-0.375 0.90625,0 1.671875,0.355469 2.296875,1.0625 0.632812,0.710937 0.953125,1.695313 0.953125,2.953125 0,1.304688 -0.320313,2.3125 -0.953125,3.03125 C 7.019531,-0.1875 6.25,0.171875 5.34375,0.171875 c -0.429688,0 -0.820312,-0.0859375 -1.171875,-0.25 -0.34375,-0.175781 -0.710937,-0.46875 -1.09375,-0.875 l 0,3.90625 -2.0625,0 z m 2.03125,3.765625 c 0,0.875 0.171875,1.523437 0.515625,1.9375 0.351562,0.417969 0.78125,0.625 1.28125,0.625 0.476562,0 0.875,-0.191406 1.1875,-0.578125 0.320312,-0.382812 0.484375,-1.015625 0.484375,-1.890625 0,-0.8125 -0.167969,-1.414063 -0.5,-1.8125 -0.324219,-0.394531 -0.726563,-0.59375 -1.203125,-0.59375 -0.511719,0 -0.933594,0.199219 -1.265625,0.59375 -0.335937,0.386719 -0.5,0.960937 -0.5,1.71875 z m 0,0"
           id="2q"
           stroke="none" />
      </symbol>
      <symbol
         id="x"
         overflow="visible">
        <path
           d="m 4.640625,-7.78125 0,1.640625 -1.40625,0 0,3.140625 c 0,0.636719 0.00781,1.007812 0.03125,1.109375 0.03125,0.105469 0.09375,0.195313 0.1875,0.265625 0.101563,0.0625 0.222656,0.09375 0.359375,0.09375 0.1875,0 0.460938,-0.066406 0.828125,-0.203125 L 4.8125,-0.125 c -0.480469,0.1953125 -1.023438,0.296875 -1.625,0.296875 -0.375,0 -0.714844,-0.0625 -1.015625,-0.1875 C 1.878906,-0.140625 1.660156,-0.300781 1.515625,-0.5 1.378906,-0.695312 1.285156,-0.960938 1.234375,-1.296875 1.191406,-1.535156 1.171875,-2.019531 1.171875,-2.75 l 0,-3.390625 -0.9375,0 0,-1.640625 0.9375,0 0,-1.546875 2.0625,-1.203125 0,2.75 z m 0,0"
           id="2r"
           stroke="none" />
      </symbol>
      <symbol
         id="y"
         overflow="visible">
        <path
           id="2s"
           stroke="none" />
      </symbol>
      <symbol
         id="z"
         overflow="visible">
        <path
           d="m 1.09375,0 0,-10.734375 3.484375,0 c 1.3125,0 2.171875,0.05469 2.578125,0.15625 0.613281,0.167969 1.125,0.523437 1.53125,1.0625 0.414062,0.53125 0.625,1.226563 0.625,2.078125 0,0.65625 -0.121094,1.214844 -0.359375,1.671875 -0.242187,0.449219 -0.542969,0.804687 -0.90625,1.0625 -0.367187,0.25 -0.742187,0.417969 -1.125,0.5 -0.523437,0.105469 -1.273437,0.15625 -2.25,0.15625 l -1.40625,0 0,4.046875 z m 2.171875,-8.921875 0,3.046875 1.1875,0 c 0.851563,0 1.421875,-0.054688 1.703125,-0.171875 0.289062,-0.113281 0.515625,-0.285156 0.671875,-0.515625 0.164063,-0.238281 0.25,-0.519531 0.25,-0.84375 0,-0.382812 -0.117187,-0.703125 -0.34375,-0.953125 C 6.503906,-8.617188 6.210938,-8.78125 5.859375,-8.84375 5.609375,-8.894531 5.09375,-8.921875 4.3125,-8.921875 Z m 0,0"
           id="2t"
           stroke="none" />
      </symbol>
      <symbol
         id="10"
         overflow="visible">
        <path
           d="M 5.578125,-2.46875 7.625,-2.125 c -0.261719,0.75 -0.679688,1.324219 -1.25,1.71875 -0.5625,0.3867188 -1.273438,0.578125 -2.125,0.578125 -1.355469,0 -2.355469,-0.441406 -3,-1.328125 -0.523438,-0.707031 -0.78125,-1.597656 -0.78125,-2.671875 0,-1.289063 0.335938,-2.300781 1.015625,-3.03125 0.675781,-0.726563 1.53125,-1.09375 2.5625,-1.09375 1.15625,0 2.066406,0.386719 2.734375,1.15625 0.664062,0.761719 0.984375,1.929687 0.953125,3.5 l -5.15625,0 c 0.019531,0.617187 0.1875,1.09375 0.5,1.4375 0.320313,0.335937 0.71875,0.5 1.1875,0.5 0.320313,0 0.59375,-0.085937 0.8125,-0.265625 0.21875,-0.175781 0.382813,-0.457031 0.5,-0.84375 z m 0.125,-2.09375 C 5.679688,-5.15625 5.523438,-5.601562 5.234375,-5.90625 4.941406,-6.21875 4.585938,-6.375 4.171875,-6.375 c -0.449219,0 -0.824219,0.164062 -1.125,0.484375 C 2.753906,-5.554688 2.613281,-5.113281 2.625,-4.5625 Z m 0,0"
           id="2u"
           stroke="none" />
      </symbol>
      <symbol
         id="11"
         overflow="visible">
        <path
           d="m 4.484375,3.15625 -1.40625,0 c -0.75,-1.125 -1.324219,-2.296875 -1.71875,-3.515625 -0.386719,-1.21875 -0.578125,-2.394531 -0.578125,-3.53125 0,-1.40625 0.242188,-2.738281 0.734375,-4 0.414063,-1.09375 0.945313,-2.101563 1.59375,-3.03125 l 1.40625,0 C 3.847656,-9.441406 3.382812,-8.179688 3.125,-7.140625 2.875,-6.109375 2.75,-5.007812 2.75,-3.84375 c 0,0.804688 0.070312,1.625 0.21875,2.46875 0.15625,0.835938 0.363281,1.628906 0.625,2.390625 0.164062,0.5 0.460938,1.210937 0.890625,2.140625 z m 0,0"
           id="2v"
           stroke="none" />
      </symbol>
      <symbol
         id="12"
         overflow="visible">
        <path
           d="m 1.09375,0 0,-10.734375 2.171875,0 0,4.21875 4.25,0 0,-4.21875 2.171875,0 0,10.734375 -2.171875,0 0,-4.6875 -4.25,0 0,4.6875 z m 0,0"
           id="2w"
           stroke="none" />
      </symbol>
      <symbol
         id="13"
         overflow="visible">
        <path
           d="m 3.125,-10.734375 0,3.9375 c 0.664062,-0.769531 1.460938,-1.15625 2.390625,-1.15625 0.46875,0 0.890625,0.089844 1.265625,0.265625 0.382812,0.179688 0.671875,0.402344 0.859375,0.671875 0.195313,0.273437 0.332031,0.574219 0.40625,0.90625 0.070313,0.335937 0.109375,0.851563 0.109375,1.546875 l 0,4.5625 -2.0625,0 0,-4.109375 c 0,-0.8125 -0.042969,-1.328125 -0.125,-1.546875 C 5.894531,-5.875 5.757812,-6.046875 5.5625,-6.171875 5.363281,-6.304688 5.113281,-6.375 4.8125,-6.375 c -0.335938,0 -0.636719,0.085938 -0.90625,0.25 C 3.632812,-5.957031 3.4375,-5.707031 3.3125,-5.375 3.1875,-5.039062 3.125,-4.546875 3.125,-3.890625 L 3.125,0 1.0625,0 l 0,-10.734375 z m 0,0"
           id="2x"
           stroke="none" />
      </symbol>
      <symbol
         id="14"
         overflow="visible">
        <path
           d="M 0.5,3.15625 C 0.90625,2.289062 1.191406,1.625 1.359375,1.15625 1.523438,0.695312 1.675781,0.164062 1.8125,-0.4375 c 0.144531,-0.613281 0.25,-1.191406 0.3125,-1.734375 0.070312,-0.539063 0.109375,-1.097656 0.109375,-1.671875 0,-1.164062 -0.125,-2.265625 -0.375,-3.296875 -0.242187,-1.039063 -0.699219,-2.300781 -1.375,-3.78125 l 1.40625,0 c 0.738281,1.054687 1.3125,2.167969 1.71875,3.34375 C 4.015625,-6.398438 4.21875,-5.207031 4.21875,-4 c 0,1.023438 -0.164062,2.117188 -0.484375,3.28125 -0.367187,1.3125 -0.96875,2.601562 -1.8125,3.875 z m 0,0"
           id="2y"
           stroke="none" />
      </symbol>
      <symbol
         id="15"
         overflow="visible">
        <path
           d="m 6.09375,-3.953125 0,-1.796875 4.671875,0 0,4.265625 c -0.460937,0.4375 -1.121094,0.828125 -1.984375,1.171875 -0.855469,0.3320312 -1.726562,0.5 -2.609375,0.5 -1.125,0 -2.105469,-0.234375 -2.9375,-0.703125 -0.835937,-0.476563 -1.464844,-1.15625 -1.890625,-2.03125 -0.417969,-0.875 -0.625,-1.828125 -0.625,-2.859375 0,-1.113281 0.234375,-2.101562 0.703125,-2.96875 0.46875,-0.875 1.15625,-1.546875 2.0625,-2.015625 0.6875,-0.351563 1.539063,-0.53125 2.5625,-0.53125 1.332031,0 2.375,0.28125 3.125,0.84375 0.75,0.554687 1.234375,1.324219 1.453125,2.3125 l -2.15625,0.40625 C 8.3125,-7.890625 8.023438,-8.304688 7.609375,-8.609375 7.191406,-8.910156 6.671875,-9.0625 6.046875,-9.0625 5.097656,-9.0625 4.34375,-8.757812 3.78125,-8.15625 3.226562,-7.5625 2.953125,-6.675781 2.953125,-5.5 c 0,1.28125 0.28125,2.242188 0.84375,2.875 0.570313,0.636719 1.316406,0.953125 2.234375,0.953125 0.445312,0 0.898438,-0.085937 1.359375,-0.265625 0.457031,-0.175781 0.847656,-0.390625 1.171875,-0.640625 l 0,-1.375 z m 0,0"
           id="2z"
           stroke="none" />
      </symbol>
      <symbol
         id="16"
         overflow="visible">
        <path
           d="m 8.15625,0 -2.0625,0 0,-3.96875 c 0,-0.84375 -0.046875,-1.382812 -0.140625,-1.625 C 5.867188,-5.84375 5.726562,-6.035156 5.53125,-6.171875 5.332031,-6.304688 5.09375,-6.375 4.8125,-6.375 4.457031,-6.375 4.140625,-6.273438 3.859375,-6.078125 3.578125,-5.890625 3.382812,-5.632812 3.28125,-5.3125 3.175781,-4.988281 3.125,-4.390625 3.125,-3.515625 L 3.125,0 1.0625,0 l 0,-7.78125 1.90625,0 0,1.140625 c 0.675781,-0.875 1.53125,-1.3125 2.5625,-1.3125 0.457031,0 0.875,0.085937 1.25,0.25 0.375,0.15625 0.65625,0.367187 0.84375,0.625 0.195312,0.25 0.332031,0.539063 0.40625,0.859375 0.082031,0.324219 0.125,0.789062 0.125,1.390625 z m 0,0"
           id="30"
           stroke="none" />
      </symbol>
      <symbol
         id="17"
         overflow="visible">
        <path
           d="m 0.171875,-7.78125 1.140625,0 0,-0.578125 c 0,-0.65625 0.066406,-1.144531 0.203125,-1.46875 0.144531,-0.320313 0.40625,-0.582031 0.78125,-0.78125 0.375,-0.207031 0.847656,-0.3125 1.421875,-0.3125 0.582031,0 1.15625,0.08984 1.71875,0.265625 l -0.28125,1.4375 c -0.324219,-0.082031 -0.636719,-0.125 -0.9375,-0.125 -0.304688,0 -0.523438,0.074219 -0.65625,0.21875 -0.125,0.136719 -0.1875,0.402344 -0.1875,0.796875 l 0,0.546875 1.546875,0 0,1.625 -1.546875,0 0,6.15625 -2.0625,0 0,-6.15625 -1.140625,0 z m 0,0"
           id="31"
           stroke="none" />
      </symbol>
      <symbol
         id="18"
         overflow="visible">
        <path
           d="m 0.921875,-7.78125 1.890625,0 0,1.0625 c 0.6875,-0.820312 1.5,-1.234375 2.4375,-1.234375 0.488281,0 0.914062,0.105469 1.28125,0.3125 0.375,0.199219 0.675781,0.507813 0.90625,0.921875 0.34375,-0.414062 0.710938,-0.722656 1.109375,-0.921875 0.394531,-0.207031 0.816406,-0.3125 1.265625,-0.3125 0.570312,0 1.054688,0.117187 1.453125,0.34375 0.394531,0.230469 0.691406,0.574219 0.890625,1.03125 0.132812,0.324219 0.203125,0.859375 0.203125,1.609375 l 0,4.96875 -2.046875,0 0,-4.453125 c 0,-0.769531 -0.07422,-1.265625 -0.21875,-1.484375 -0.1875,-0.289062 -0.480469,-0.4375 -0.875,-0.4375 -0.292969,0 -0.570312,0.089844 -0.828125,0.265625 C 8.140625,-5.941406 7.957031,-5.6875 7.84375,-5.34375 7.738281,-5 7.6875,-4.460938 7.6875,-3.734375 L 7.6875,0 5.625,0 l 0,-4.265625 c 0,-0.75 -0.039062,-1.234375 -0.109375,-1.453125 -0.074219,-0.226562 -0.1875,-0.394531 -0.34375,-0.5 -0.15625,-0.101562 -0.367187,-0.15625 -0.625,-0.15625 -0.3125,0 -0.601563,0.089844 -0.859375,0.265625 -0.25,0.167969 -0.433594,0.414063 -0.546875,0.734375 -0.105469,0.3125 -0.15625,0.84375 -0.15625,1.59375 l 0,3.78125 -2.0625,0 z m 0,0"
           id="32"
           stroke="none" />
      </symbol>
      <symbol
         id="19"
         overflow="visible">
        <path
           d="m 4.96875,-10.734375 2.15625,0 0,6.796875 c 0,0.886719 -0.078125,1.570312 -0.234375,2.046875 C 6.679688,-1.265625 6.300781,-0.757812 5.75,-0.375 5.195312,0 4.46875,0.1875 3.5625,0.1875 2.507812,0.1875 1.695312,-0.109375 1.125,-0.703125 0.550781,-1.296875 0.257812,-2.164062 0.25,-3.3125 l 2.046875,-0.234375 c 0.03125,0.617187 0.125,1.046875 0.28125,1.296875 0.226563,0.386719 0.582031,0.578125 1.0625,0.578125 0.476563,0 0.816406,-0.132813 1.015625,-0.40625 0.207031,-0.28125 0.3125,-0.851563 0.3125,-1.71875 z m 0,0"
           id="33"
           stroke="none" />
      </symbol>
      <symbol
         id="1A"
         overflow="visible">
        <path
           d="m 3.21875,0 -3.140625,-7.78125 2.15625,0 1.46875,3.96875 L 4.125,-2.484375 C 4.238281,-2.816406 4.3125,-3.039062 4.34375,-3.15625 4.414062,-3.375 4.488281,-3.59375 4.5625,-3.8125 l 1.484375,-3.96875 2.109375,0 L 5.0625,0 Z m 0,0"
           id="34"
           stroke="none" />
      </symbol>
      <symbol
         id="1B"
         overflow="visible">
        <path
           d="m 1.09375,-10.734375 4.296875,0 c 0.851563,0 1.488281,0.03906 1.90625,0.109375 0.414063,0.0625 0.785156,0.210938 1.109375,0.4375 0.332031,0.230469 0.609375,0.53125 0.828125,0.90625 0.21875,0.367188 0.328125,0.78125 0.328125,1.25 0,0.5 -0.136719,0.964844 -0.40625,1.390625 -0.273438,0.417969 -0.636719,0.730469 -1.09375,0.9375 0.644531,0.1875 1.144531,0.511719 1.5,0.96875 0.351562,0.460937 0.53125,1 0.53125,1.625 0,0.492187 -0.117188,0.964844 -0.34375,1.421875 -0.230469,0.460938 -0.542969,0.828125 -0.9375,1.109375 -0.386719,0.273437 -0.867188,0.4375 -1.4375,0.5 C 7.007812,-0.0351562 6.132812,-0.0078125 4.75,0 L 1.09375,0 Z m 2.171875,1.78125 0,2.484375 1.421875,0 c 0.84375,0 1.367188,-0.00781 1.578125,-0.03125 0.363281,-0.039062 0.648437,-0.164062 0.859375,-0.375 0.21875,-0.21875 0.328125,-0.503906 0.328125,-0.859375 0,-0.320313 -0.09375,-0.585937 -0.28125,-0.796875 -0.179687,-0.207031 -0.449219,-0.332031 -0.8125,-0.375 C 6.148438,-8.9375 5.535156,-8.953125 4.515625,-8.953125 Z m 0,4.265625 0,2.875 2.015625,0 c 0.78125,0 1.273438,-0.019531 1.484375,-0.0625 0.320313,-0.0625 0.582031,-0.203125 0.78125,-0.421875 0.207031,-0.226563 0.3125,-0.535156 0.3125,-0.921875 0,-0.320312 -0.078125,-0.59375 -0.234375,-0.8125 -0.15625,-0.226562 -0.386719,-0.394531 -0.6875,-0.5 C 6.644531,-4.632812 6.003906,-4.6875 5.015625,-4.6875 Z m 0,0"
           id="35"
           stroke="none" />
      </symbol>
      <symbol
         id="1C"
         overflow="visible">
        <path
           d="m 0.984375,0 0,-10.734375 2.0625,0 0,3.859375 c 0.632813,-0.71875 1.382813,-1.078125 2.25,-1.078125 0.945313,0 1.726563,0.34375 2.34375,1.03125 0.625,0.6875 0.9375,1.671875 0.9375,2.953125 0,1.324219 -0.320313,2.34375 -0.953125,3.0625 C 7,-0.1875 6.234375,0.171875 5.328125,0.171875 c -0.4375,0 -0.875,-0.109375 -1.3125,-0.328125 C 3.585938,-0.375 3.21875,-0.703125 2.90625,-1.140625 L 2.90625,0 Z M 3.03125,-4.0625 c 0,0.8125 0.125,1.414062 0.375,1.796875 0.363281,0.542969 0.835938,0.8125 1.421875,0.8125 0.457031,0 0.84375,-0.191406 1.15625,-0.578125 0.320313,-0.382812 0.484375,-1 0.484375,-1.84375 0,-0.882812 -0.164062,-1.519531 -0.484375,-1.90625 C 5.671875,-6.175781 5.257812,-6.375 4.75,-6.375 c -0.492188,0 -0.902344,0.195312 -1.234375,0.578125 -0.324219,0.375 -0.484375,0.953125 -0.484375,1.734375 z m 0,0"
           id="36"
           stroke="none" />
      </symbol>
      <symbol
         id="1D"
         overflow="visible">
        <path
           d="m 0.109375,-7.78125 2.1875,0 1.859375,5.53125 1.8125,-5.53125 2.125,0 -2.734375,7.484375 -0.5,1.359375 C 4.679688,1.519531 4.507812,1.867188 4.34375,2.109375 4.1875,2.347656 4,2.539062 3.78125,2.6875 3.570312,2.832031 3.3125,2.945312 3,3.03125 c -0.3125,0.082031 -0.664062,0.125 -1.046875,0.125 -0.398437,0 -0.789063,-0.042969 -1.171875,-0.125 L 0.59375,1.421875 c 0.320312,0.0625 0.613281,0.09375 0.875,0.09375 0.476562,0 0.832031,-0.140625 1.0625,-0.421875 C 2.757812,0.8125 2.9375,0.453125 3.0625,0.015625 Z m 0,0"
           id="37"
           stroke="none" />
      </symbol>
      <symbol
         id="1E"
         overflow="visible">
        <path
           d="m 1.078125,0 0,-10.734375 2.0625,0 0,10.734375 z m 0,0"
           id="38"
           stroke="none" />
      </symbol>
      <symbol
         id="1F"
         overflow="visible">
        <path
           d="m 1.625,0 0,-8.125 6.5,0 0,8.125 z m 0.203125,-0.203125 6.09375,0 0,-7.71875 -6.09375,0 z m 0,0"
           id="39"
           stroke="none" />
      </symbol>
      <symbol
         id="1G"
         overflow="visible">
        <path
           d="m 3.375,0 0,-8.203125 -3.0625,0 0,-1.109375 7.375,0 0,1.109375 -3.078125,0 0,8.203125 z m 0,0"
           id="3A"
           stroke="none" />
      </symbol>
      <symbol
         id="1H"
         overflow="visible">
        <path
           d="m 5.28125,0 0,-0.984375 C 4.75,-0.222656 4.035156,0.15625 3.140625,0.15625 c -0.398437,0 -0.773437,-0.078125 -1.125,-0.234375 C 1.671875,-0.234375 1.414062,-0.425781 1.25,-0.65625 1.082031,-0.882812 0.96875,-1.164062 0.90625,-1.5 0.851562,-1.71875 0.828125,-2.070312 0.828125,-2.5625 l 0,-4.171875 1.140625,0 0,3.734375 c 0,0.59375 0.023438,0.996094 0.078125,1.203125 0.070313,0.304687 0.222656,0.542969 0.453125,0.71875 0.226562,0.167969 0.515625,0.25 0.859375,0.25 0.34375,0 0.664063,-0.085937 0.96875,-0.265625 0.300781,-0.175781 0.515625,-0.414062 0.640625,-0.71875 0.125,-0.300781 0.1875,-0.738281 0.1875,-1.3125 l 0,-3.609375 1.140625,0 0,6.734375 z m 0,0"
           id="3B"
           stroke="none" />
      </symbol>
      <symbol
         id="1I"
         overflow="visible">
        <path
           d="m 0.84375,0 0,-6.734375 1.03125,0 0,1.015625 c 0.257812,-0.476562 0.5,-0.789062 0.71875,-0.9375 0.226562,-0.15625 0.472656,-0.234375 0.734375,-0.234375 0.382813,0 0.773437,0.121094 1.171875,0.359375 l -0.390625,1.0625 c -0.28125,-0.164062 -0.558594,-0.25 -0.828125,-0.25 -0.25,0 -0.480469,0.078125 -0.6875,0.234375 -0.199219,0.148437 -0.339844,0.355469 -0.421875,0.625 -0.125,0.40625 -0.1875,0.851563 -0.1875,1.328125 l 0,3.53125 z m 0,0"
           id="3C"
           stroke="none" />
      </symbol>
      <symbol
         id="1J"
         overflow="visible">
        <path
           d="m 0.859375,0 0,-6.734375 1.03125,0 0,0.953125 c 0.488281,-0.738281 1.203125,-1.109375 2.140625,-1.109375 0.40625,0 0.773438,0.074219 1.109375,0.21875 0.34375,0.148437 0.597656,0.339844 0.765625,0.578125 0.175781,0.230469 0.296875,0.511719 0.359375,0.84375 0.039063,0.210938 0.0625,0.578125 0.0625,1.109375 L 6.328125,0 5.1875,0 l 0,-4.09375 C 5.1875,-4.5625 5.140625,-4.910156 5.046875,-5.140625 4.960938,-5.367188 4.804688,-5.550781 4.578125,-5.6875 4.359375,-5.832031 4.097656,-5.90625 3.796875,-5.90625 3.304688,-5.90625 2.882812,-5.75 2.53125,-5.4375 2.175781,-5.132812 2,-4.550781 2,-3.6875 L 2,0 Z m 0,0"
           id="3D"
           stroke="none" />
      </symbol>
      <symbol
         id="1K"
         overflow="visible">
        <path
           d="m 0.40625,-2.015625 1.125,-0.171875 c 0.0625,0.449219 0.238281,0.796875 0.53125,1.046875 0.289062,0.242187 0.695312,0.359375 1.21875,0.359375 0.519531,0 0.90625,-0.101562 1.15625,-0.3125 0.257812,-0.21875 0.390625,-0.472656 0.390625,-0.765625 0,-0.257813 -0.117187,-0.460937 -0.34375,-0.609375 C 4.328125,-2.570312 3.9375,-2.703125 3.3125,-2.859375 2.476562,-3.066406 1.898438,-3.25 1.578125,-3.40625 1.253906,-3.5625 1.007812,-3.773438 0.84375,-4.046875 c -0.167969,-0.269531 -0.25,-0.570313 -0.25,-0.90625 0,-0.300781 0.066406,-0.578125 0.203125,-0.828125 0.132813,-0.257812 0.320313,-0.472656 0.5625,-0.640625 0.175781,-0.132813 0.414063,-0.242187 0.71875,-0.328125 0.3125,-0.09375 0.644531,-0.140625 1,-0.140625 0.519531,0 0.976563,0.078125 1.375,0.234375 0.40625,0.148438 0.703125,0.351562 0.890625,0.609375 C 5.539062,-5.785156 5.675781,-5.4375 5.75,-5 L 4.625,-4.84375 C 4.570312,-5.195312 4.425781,-5.46875 4.1875,-5.65625 3.945312,-5.851562 3.601562,-5.953125 3.15625,-5.953125 c -0.523438,0 -0.898438,0.089844 -1.125,0.265625 -0.230469,0.167969 -0.34375,0.371094 -0.34375,0.609375 0,0.148437 0.046875,0.277344 0.140625,0.390625 0.09375,0.125 0.238281,0.230469 0.4375,0.3125 0.113281,0.042969 0.453125,0.136719 1.015625,0.28125 0.8125,0.21875 1.375,0.398438 1.6875,0.53125 0.320312,0.136719 0.570312,0.339844 0.75,0.609375 C 5.90625,-2.691406 6,-2.367188 6,-1.984375 6,-1.597656 5.882812,-1.238281 5.65625,-0.90625 5.4375,-0.570312 5.117188,-0.3125 4.703125,-0.125 4.285156,0.0625 3.8125,0.15625 3.28125,0.15625 c -0.875,0 -1.542969,-0.1796875 -2,-0.546875 -0.460938,-0.363281 -0.75,-0.90625 -0.875,-1.625 z m 0,0"
           id="3E"
           stroke="none" />
      </symbol>
      <symbol
         id="1L"
         overflow="visible">
        <path
           id="3F"
           stroke="none" />
      </symbol>
      <symbol
         id="1M"
         overflow="visible">
        <path
           d="m 5.25,-2.46875 1.125,0.140625 C 6.257812,-1.546875 5.945312,-0.9375 5.4375,-0.5 4.925781,-0.0625 4.304688,0.15625 3.578125,0.15625 2.648438,0.15625 1.90625,-0.144531 1.34375,-0.75 0.789062,-1.351562 0.515625,-2.21875 0.515625,-3.34375 c 0,-0.726562 0.117187,-1.363281 0.359375,-1.90625 0.238281,-0.550781 0.601562,-0.960938 1.09375,-1.234375 0.488281,-0.269531 1.023438,-0.40625 1.609375,-0.40625 0.726563,0 1.328125,0.1875 1.796875,0.5625 0.46875,0.367187 0.765625,0.886719 0.890625,1.5625 L 5.15625,-4.59375 C 5.050781,-5.039062 4.863281,-5.378906 4.59375,-5.609375 4.332031,-5.835938 4.007812,-5.953125 3.625,-5.953125 c -0.574219,0 -1.042969,0.210937 -1.40625,0.625 -0.355469,0.40625 -0.53125,1.058594 -0.53125,1.953125 0,0.90625 0.171875,1.570312 0.515625,1.984375 C 2.546875,-0.984375 3,-0.78125 3.5625,-0.78125 c 0.445312,0 0.820312,-0.132812 1.125,-0.40625 0.300781,-0.28125 0.488281,-0.707031 0.5625,-1.28125 z m 0,0"
           id="3G"
           stroke="none" />
      </symbol>
      <symbol
         id="1N"
         overflow="visible">
        <path
           d="m 0.4375,-3.375 c 0,-1.25 0.34375,-2.171875 1.03125,-2.765625 0.582031,-0.5 1.289062,-0.75 2.125,-0.75 0.925781,0 1.679688,0.304687 2.265625,0.90625 C 6.453125,-5.378906 6.75,-4.539062 6.75,-3.46875 c 0,0.867188 -0.132812,1.546875 -0.390625,2.046875 -0.261719,0.5 -0.640625,0.890625 -1.140625,1.171875 -0.5,0.2695312 -1.042969,0.40625 -1.625,0.40625 C 2.644531,0.15625 1.878906,-0.144531 1.296875,-0.75 0.722656,-1.351562 0.4375,-2.226562 0.4375,-3.375 Z m 1.171875,0 c 0,0.867188 0.1875,1.515625 0.5625,1.953125 0.375,0.429687 0.847656,0.640625 1.421875,0.640625 0.5625,0 1.03125,-0.210938 1.40625,-0.640625 0.382812,-0.4375 0.578125,-1.097656 0.578125,-1.984375 0,-0.832031 -0.195313,-1.460938 -0.578125,-1.890625 -0.375,-0.4375 -0.84375,-0.65625 -1.40625,-0.65625 -0.574219,0 -1.046875,0.214844 -1.421875,0.640625 -0.375,0.429688 -0.5625,1.074219 -0.5625,1.9375 z m 0,0"
           id="3H"
           stroke="none" />
      </symbol>
      <symbol
         id="1O"
         overflow="visible">
        <path
           d="m 5.234375,0 0,-0.84375 c -0.429687,0.667969 -1.058594,1 -1.890625,1 -0.53125,0 -1.027344,-0.1484375 -1.484375,-0.4375 C 1.410156,-0.582031 1.0625,-1 0.8125,-1.53125 c -0.25,-0.53125 -0.375,-1.140625 -0.375,-1.828125 0,-0.675781 0.113281,-1.285156 0.34375,-1.828125 0.226562,-0.550781 0.566406,-0.972656 1.015625,-1.265625 0.445313,-0.289063 0.945313,-0.4375 1.5,-0.4375 0.40625,0 0.765625,0.089844 1.078125,0.265625 0.320312,0.167969 0.582031,0.386719 0.78125,0.65625 l 0,-3.34375 1.140625,0 0,9.3125 z M 1.625,-3.359375 c 0,0.867187 0.175781,1.511719 0.53125,1.9375 0.363281,0.429687 0.796875,0.640625 1.296875,0.640625 0.5,0 0.921875,-0.203125 1.265625,-0.609375 0.351562,-0.414063 0.53125,-1.039063 0.53125,-1.875 0,-0.925781 -0.179688,-1.601563 -0.53125,-2.03125 -0.355469,-0.4375 -0.792969,-0.65625 -1.3125,-0.65625 -0.511719,0 -0.9375,0.210937 -1.28125,0.625 -0.335938,0.417969 -0.5,1.074219 -0.5,1.96875 z m 0,0"
           id="3I"
           stroke="none" />
      </symbol>
      <symbol
         id="1P"
         overflow="visible">
        <path
           d="m 5.46875,-2.171875 1.1875,0.140625 c -0.1875,0.699219 -0.539062,1.242188 -1.046875,1.625 -0.5,0.375 -1.140625,0.5625 -1.921875,0.5625 C 2.695312,0.15625 1.910156,-0.144531 1.328125,-0.75 0.753906,-1.363281 0.46875,-2.21875 0.46875,-3.3125 c 0,-1.132812 0.289062,-2.015625 0.875,-2.640625 0.59375,-0.625 1.351562,-0.9375 2.28125,-0.9375 0.90625,0 1.640625,0.308594 2.203125,0.921875 0.570313,0.617188 0.859375,1.476562 0.859375,2.578125 0,0.074219 0,0.179687 0,0.3125 l -5.03125,0 c 0.039062,0.742187 0.25,1.308594 0.625,1.703125 0.375,0.398438 0.84375,0.59375 1.40625,0.59375 0.425781,0 0.785156,-0.109375 1.078125,-0.328125 0.300781,-0.226563 0.535156,-0.582031 0.703125,-1.0625 z m -3.75,-1.84375 3.765625,0 c -0.054687,-0.570313 -0.199219,-1 -0.4375,-1.28125 -0.367187,-0.4375 -0.835937,-0.65625 -1.40625,-0.65625 -0.53125,0 -0.976563,0.179687 -1.328125,0.53125 -0.355469,0.34375 -0.554688,0.8125 -0.59375,1.40625 z m 0,0"
           id="3J"
           stroke="none" />
      </symbol>
      <symbol
         id="1Q"
         overflow="visible">
        <path
           d="m 0.859375,-7.984375 0,-1.328125 1.140625,0 0,1.328125 z m 0,7.984375 0,-6.734375 1.140625,0 L 2,0 Z m 0,0"
           id="3K"
           stroke="none" />
      </symbol>
      <symbol
         id="1R"
         overflow="visible">
        <path
           d="m 3.359375,-1.015625 0.15625,1 C 3.191406,0.0546875 2.90625,0.09375 2.65625,0.09375 2.238281,0.09375 1.914062,0.0234375 1.6875,-0.109375 1.457031,-0.242188 1.296875,-0.414062 1.203125,-0.625 1.109375,-0.84375 1.0625,-1.289062 1.0625,-1.96875 l 0,-3.890625 -0.828125,0 0,-0.875 0.828125,0 0,-1.671875 1.140625,-0.6875 0,2.359375 1.15625,0 0,0.875 -1.15625,0 0,3.953125 c 0,0.324219 0.019531,0.53125 0.0625,0.625 0.039063,0.09375 0.101563,0.167969 0.1875,0.21875 0.09375,0.054688 0.222656,0.078125 0.390625,0.078125 0.132812,0 0.304688,-0.007813 0.515625,-0.03125 z m 0,0"
           id="3L"
           stroke="none" />
      </symbol>
      <symbol
         id="1S"
         overflow="visible">
        <path
           d="m -0.015625,0 3.578125,-9.3125 1.3125,0 L 8.6875,0 7.28125,0 6.203125,-2.8125 2.3125,-2.8125 1.28125,0 Z m 2.6875,-3.828125 3.15625,0 L 4.84375,-6.40625 C 4.550781,-7.1875 4.332031,-7.828125 4.1875,-8.328125 c -0.117188,0.59375 -0.28125,1.1875 -0.5,1.78125 z m 0,0"
           id="3M"
           stroke="none" />
      </symbol>
      <symbol
         id="1T"
         overflow="visible">
        <path
           d="M 0.578125,-2.984375 1.75,-3.09375 c 0.050781,0.46875 0.175781,0.855469 0.375,1.15625 0.207031,0.292969 0.519531,0.53125 0.9375,0.71875 0.425781,0.179688 0.90625,0.265625 1.4375,0.265625 0.46875,0 0.878906,-0.066406 1.234375,-0.203125 0.363281,-0.132812 0.632813,-0.320312 0.8125,-0.5625 0.175781,-0.25 0.265625,-0.519531 0.265625,-0.8125 0,-0.289062 -0.089844,-0.546875 -0.265625,-0.765625 C 6.378906,-3.515625 6.101562,-3.695312 5.71875,-3.84375 5.46875,-3.9375 4.914062,-4.085938 4.0625,-4.296875 3.207031,-4.503906 2.609375,-4.695312 2.265625,-4.875 c -0.449219,-0.226562 -0.78125,-0.515625 -1,-0.859375 C 1.046875,-6.085938 0.9375,-6.476562 0.9375,-6.90625 0.9375,-7.375 1.066406,-7.8125 1.328125,-8.21875 1.597656,-8.625 1.988281,-8.929688 2.5,-9.140625 3.019531,-9.359375 3.59375,-9.46875 4.21875,-9.46875 c 0.6875,0 1.289062,0.117188 1.8125,0.34375 0.53125,0.21875 0.9375,0.546875 1.21875,0.984375 0.289062,0.429687 0.445312,0.914063 0.46875,1.453125 l -1.1875,0.09375 C 6.46875,-7.1875 6.253906,-7.628906 5.890625,-7.921875 5.523438,-8.222656 4.984375,-8.375 4.265625,-8.375 c -0.742187,0 -1.28125,0.136719 -1.625,0.40625 C 2.296875,-7.695312 2.125,-7.367188 2.125,-6.984375 c 0,0.335937 0.117188,0.609375 0.359375,0.828125 0.238281,0.21875 0.859375,0.445312 1.859375,0.671875 1,0.21875 1.6875,0.414063 2.0625,0.578125 0.539062,0.25 0.9375,0.570312 1.1875,0.953125 0.257812,0.386719 0.390625,0.828125 0.390625,1.328125 0,0.492188 -0.140625,0.953125 -0.421875,1.390625 -0.28125,0.4375 -0.6875,0.78125 -1.21875,1.03125 C 5.8125,0.0351562 5.210938,0.15625 4.546875,0.15625 c -0.84375,0 -1.554687,-0.1210938 -2.125,-0.359375 -0.5625,-0.25 -1.007813,-0.617187 -1.328125,-1.109375 -0.324219,-0.5 -0.496094,-1.054688 -0.515625,-1.671875 z m 0,0"
           id="3N"
           stroke="none" />
      </symbol>
      <symbol
         id="1U"
         overflow="visible">
        <path
           d="m 0.375,-2.640625 1.109375,-0.15625 c 0.03125,0.710937 0.160156,1.199219 0.390625,1.46875 0.238281,0.261719 0.570312,0.390625 1,0.390625 0.300781,0 0.5625,-0.066406 0.78125,-0.203125 0.226562,-0.144531 0.382812,-0.335937 0.46875,-0.578125 0.09375,-0.25 0.140625,-0.640625 0.140625,-1.171875 l 0,-6.421875 1.21875,0 0,6.34375 c 0,0.78125 -0.09375,1.386719 -0.28125,1.8125 C 5.015625,-0.726562 4.71875,-0.398438 4.3125,-0.171875 3.90625,0.046875 3.425781,0.15625 2.875,0.15625 2.0625,0.15625 1.4375,-0.078125 1,-0.546875 0.5625,-1.015625 0.351562,-1.710938 0.375,-2.640625 Z m 0,0"
           id="3O"
           stroke="none" />
      </symbol>
      <symbol
         id="1V"
         overflow="visible">
        <path
           d="M 5.25,-0.828125 C 4.832031,-0.472656 4.425781,-0.21875 4.03125,-0.0625 c -0.386719,0.1445312 -0.804688,0.21875 -1.25,0.21875 -0.75,0 -1.324219,-0.1796875 -1.71875,-0.546875 C 0.664062,-0.753906 0.46875,-1.21875 0.46875,-1.78125 c 0,-0.320312 0.070312,-0.617188 0.21875,-0.890625 0.15625,-0.28125 0.351562,-0.503906 0.59375,-0.671875 0.25,-0.164062 0.523438,-0.289062 0.828125,-0.375 C 2.328125,-3.769531 2.664062,-3.828125 3.125,-3.890625 4.039062,-3.992188 4.71875,-4.125 5.15625,-4.28125 5.164062,-4.4375 5.171875,-4.535156 5.171875,-4.578125 5.171875,-5.046875 5.0625,-5.375 4.84375,-5.5625 4.550781,-5.820312 4.117188,-5.953125 3.546875,-5.953125 c -0.542969,0 -0.945313,0.09375 -1.203125,0.28125 -0.25,0.1875 -0.4375,0.523437 -0.5625,1 L 0.671875,-4.8125 C 0.765625,-5.289062 0.925781,-5.675781 1.15625,-5.96875 1.394531,-6.269531 1.734375,-6.5 2.171875,-6.65625 c 0.445313,-0.15625 0.957031,-0.234375 1.53125,-0.234375 0.582031,0 1.050781,0.070313 1.40625,0.203125 0.363281,0.136719 0.628906,0.308594 0.796875,0.515625 0.164062,0.199219 0.285156,0.453125 0.359375,0.765625 0.03125,0.199219 0.046875,0.554688 0.046875,1.0625 l 0,1.515625 c 0,1.0625 0.023438,1.734375 0.078125,2.015625 0.050781,0.28125 0.144531,0.554688 0.28125,0.8125 l -1.1875,0 C 5.367188,-0.238281 5.289062,-0.515625 5.25,-0.828125 Z m -0.09375,-2.5625 c -0.417969,0.179687 -1.039062,0.324219 -1.859375,0.4375 -0.46875,0.074219 -0.804687,0.152344 -1,0.234375 -0.199219,0.085938 -0.351563,0.210938 -0.453125,0.375 -0.105469,0.15625 -0.15625,0.335938 -0.15625,0.53125 0,0.304688 0.113281,0.558594 0.34375,0.765625 C 2.257812,-0.847656 2.597656,-0.75 3.046875,-0.75 c 0.4375,0 0.828125,-0.09375 1.171875,-0.28125 0.34375,-0.195312 0.597656,-0.460938 0.765625,-0.796875 0.113281,-0.25 0.171875,-0.628906 0.171875,-1.140625 z m 0,0"
           id="3P"
           stroke="none" />
      </symbol>
      <symbol
         id="1W"
         overflow="visible">
        <path
           d="m 2.734375,0 -2.5625,-6.734375 1.203125,0 1.4375,4.03125 C 2.96875,-2.265625 3.113281,-1.8125 3.25,-1.34375 3.351562,-1.695312 3.492188,-2.125 3.671875,-2.625 l 1.5,-4.109375 1.171875,0 L 3.796875,0 Z m 0,0"
           id="3Q"
           stroke="none" />
      </symbol>
      <symbol
         id="1X"
         overflow="visible">
        <path
           d="m 0.859375,2.578125 0,-9.3125 1.03125,0 0,0.875 c 0.25,-0.34375 0.523437,-0.597656 0.828125,-0.765625 0.3125,-0.175781 0.691406,-0.265625 1.140625,-0.265625 0.570313,0 1.078125,0.152344 1.515625,0.453125 0.4375,0.292969 0.765625,0.710938 0.984375,1.25 0.226563,0.53125 0.34375,1.121094 0.34375,1.765625 0,0.6875 -0.125,1.308594 -0.375,1.859375 C 6.085938,-1.007812 5.726562,-0.582031 5.25,-0.28125 4.78125,0.0078125 4.285156,0.15625 3.765625,0.15625 3.390625,0.15625 3.050781,0.078125 2.75,-0.078125 2.445312,-0.242188 2.195312,-0.453125 2,-0.703125 l 0,3.28125 z m 1.03125,-5.90625 c 0,0.867187 0.175781,1.507813 0.53125,1.921875 0.351563,0.417969 0.773437,0.625 1.265625,0.625 0.507812,0 0.945312,-0.210938 1.3125,-0.640625 0.363281,-0.4375 0.546875,-1.101563 0.546875,-2 0,-0.863281 -0.179687,-1.507813 -0.53125,-1.9375 C 4.660156,-5.785156 4.238281,-6 3.75,-6 c -0.492188,0 -0.921875,0.230469 -1.296875,0.6875 -0.375,0.449219 -0.5625,1.109375 -0.5625,1.984375 z m 0,0"
           id="3R"
           stroke="none" />
      </symbol>
      <symbol
         id="1Y"
         overflow="visible">
        <path
           d="m 7.640625,-3.265625 1.234375,0.3125 c -0.261719,1.011719 -0.730469,1.78125 -1.40625,2.3125 -0.667969,0.53125 -1.484375,0.796875 -2.453125,0.796875 -1,0 -1.820313,-0.203125 -2.453125,-0.609375 C 1.9375,-0.859375 1.457031,-1.445312 1.125,-2.21875 0.800781,-3 0.640625,-3.832031 0.640625,-4.71875 c 0,-0.96875 0.1875,-1.8125 0.5625,-2.53125 0.375,-0.726562 0.898437,-1.28125 1.578125,-1.65625 0.6875,-0.375 1.441406,-0.5625 2.265625,-0.5625 0.925781,0 1.707031,0.242188 2.34375,0.71875 0.632813,0.46875 1.078125,1.136719 1.328125,2 L 7.5,-6.46875 C 7.28125,-7.144531 6.96875,-7.632812 6.5625,-7.9375 6.15625,-8.25 5.640625,-8.40625 5.015625,-8.40625 c -0.71875,0 -1.320313,0.171875 -1.796875,0.515625 -0.480469,0.34375 -0.820312,0.804687 -1.015625,1.375 -0.1875,0.574219 -0.28125,1.167969 -0.28125,1.78125 0,0.792969 0.113281,1.484375 0.34375,2.078125 0.226563,0.59375 0.582031,1.039062 1.0625,1.328125 0.488281,0.292969 1.019531,0.4375 1.59375,0.4375 0.6875,0 1.269531,-0.195313 1.75,-0.59375 0.476563,-0.40625 0.800781,-1 0.96875,-1.78125 z m 0,0"
           id="3S"
           stroke="none" />
      </symbol>
      <symbol
         id="1Z"
         overflow="visible">
        <path
           d="m 0.96875,0 0,-9.3125 1.84375,0 2.203125,6.59375 c 0.207031,0.617188 0.359375,1.074219 0.453125,1.375 0.101562,-0.332031 0.265625,-0.828125 0.484375,-1.484375 L 8.1875,-9.3125 l 1.65625,0 0,9.3125 -1.1875,0 0,-7.78125 L 5.953125,0 4.84375,0 2.15625,-7.921875 2.15625,0 Z m 0,0"
           id="3T"
           stroke="none" />
      </symbol>
      <symbol
         id="1a"
         overflow="visible">
        <path
           d="m 0.828125,0 0,-9.3125 1.140625,0 0,9.3125 z m 0,0"
           id="3U"
           stroke="none" />
      </symbol>
      <symbol
         id="1b"
         overflow="visible">
        <path
           d="M 0.8125,2.59375 0.671875,1.53125 c 0.25,0.0625 0.46875,0.09375 0.65625,0.09375 C 1.585938,1.625 1.789062,1.582031 1.9375,1.5 2.09375,1.414062 2.21875,1.296875 2.3125,1.140625 2.382812,1.023438 2.503906,0.742188 2.671875,0.296875 c 0.019531,-0.0625 0.050781,-0.15625 0.09375,-0.28125 l -2.5625,-6.75 1.234375,0 1.40625,3.890625 c 0.175781,0.5 0.335938,1.023438 0.484375,1.5625 0.132813,-0.519531 0.289063,-1.03125 0.46875,-1.53125 L 5.25,-6.734375 l 1.140625,0 -2.5625,6.84375 C 3.546875,0.847656 3.332031,1.359375 3.1875,1.640625 2.976562,2.015625 2.742188,2.289062 2.484375,2.46875 2.222656,2.644531 1.910156,2.734375 1.546875,2.734375 1.328125,2.734375 1.082031,2.6875 0.8125,2.59375 Z m 0,0"
           id="3V"
           stroke="none" />
      </symbol>
      <symbol
         id="1c"
         overflow="visible">
        <path
           d="m 0.09375,0 2.46875,-3.5 -2.28125,-3.234375 1.421875,0 L 2.75,-5.15625 c 0.1875,0.304688 0.34375,0.554688 0.46875,0.75 0.175781,-0.28125 0.34375,-0.523438 0.5,-0.734375 l 1.140625,-1.59375 1.375,0 L 3.890625,-3.5625 6.40625,0 5,0 3.625,-2.09375 3.25,-2.65625 1.484375,0 Z m 0,0"
           id="3W"
           stroke="none" />
      </symbol>
      <symbol
         id="1d"
         overflow="visible">
        <path
           d="m 0.84375,-7.984375 0,-1.328125 1.15625,0 0,1.328125 z m -1.4375,10.59375 0.21875,-0.96875 c 0.230469,0.0625 0.40625,0.09375 0.53125,0.09375 C 0.394531,1.734375 0.566406,1.65625 0.671875,1.5 0.785156,1.34375 0.84375,0.957031 0.84375,0.34375 l 0,-7.078125 1.15625,0 L 2,0.375 c 0,0.820312 -0.109375,1.394531 -0.328125,1.71875 -0.28125,0.425781 -0.742187,0.640625 -1.375,0.640625 -0.3125,0 -0.609375,-0.042969 -0.890625,-0.125 z m 0,0"
           id="3X"
           stroke="none" />
      </symbol>
      <symbol
         id="1e"
         overflow="visible">
        <path
           id="3Y"
           stroke="none" />
      </symbol>
      <symbol
         id="1f"
         overflow="visible">
        <path
           d="m 5.109375,-1.046875 -4.0625,-4.0625 C 0.890625,-5.265625 0.8125,-5.457031 0.8125,-5.6875 c 0,-0.226562 0.078125,-0.421875 0.234375,-0.578125 l 4.0625,-4.0625 c 0.15625,-0.15625 0.347656,-0.234375 0.578125,-0.234375 0.226562,0 0.421875,0.07813 0.578125,0.234375 C 6.421875,-10.171875 6.5,-9.976562 6.5,-9.75 c 0,0.230469 -0.078125,0.421875 -0.234375,0.578125 L 3.59375,-6.5 l 7.78125,0 c 0.226562,0 0.421875,0.078125 0.578125,0.234375 0.15625,0.15625 0.234375,0.351563 0.234375,0.578125 0,0.230469 -0.07813,0.421875 -0.234375,0.578125 C 11.796875,-4.953125 11.601562,-4.875 11.375,-4.875 l -7.78125,0 2.671875,2.671875 C 6.347656,-2.117188 6.40625,-2.023438 6.4375,-1.921875 6.476562,-1.828125 6.5,-1.726562 6.5,-1.625 6.5,-1.519531 6.476562,-1.414062 6.4375,-1.3125 6.40625,-1.21875 6.347656,-1.128906 6.265625,-1.046875 6.109375,-0.890625 5.914062,-0.8125 5.6875,-0.8125 c -0.230469,0 -0.421875,-0.078125 -0.578125,-0.234375 z m 0,0"
           id="3Z"
           stroke="none" />
      </symbol>
      <symbol
         id="1g"
         overflow="visible">
        <path
           d="m 11.140625,-4.296875 -4.0625,4.0625 C 6.921875,-0.078125 6.726562,0 6.5,0 6.269531,0 6.078125,-0.078125 5.921875,-0.234375 l -4.0625,-4.0625 C 1.703125,-4.453125 1.625,-4.644531 1.625,-4.875 c 0,-0.226562 0.078125,-0.421875 0.234375,-0.578125 0.15625,-0.15625 0.347656,-0.234375 0.578125,-0.234375 0.226562,0 0.421875,0.078125 0.578125,0.234375 l 2.671875,2.671875 0,-7.78125 c 0,-0.226562 0.078125,-0.421875 0.234375,-0.578125 C 6.078125,-11.296875 6.269531,-11.375 6.5,-11.375 c 0.226562,0 0.421875,0.07813 0.578125,0.234375 0.15625,0.15625 0.234375,0.351563 0.234375,0.578125 l 0,7.78125 2.671875,-2.671875 C 10.066406,-5.535156 10.15625,-5.59375 10.25,-5.625 c 0.101562,-0.039062 0.207031,-0.0625 0.3125,-0.0625 0.101562,0 0.203125,0.023438 0.296875,0.0625 0.101563,0.03125 0.195313,0.089844 0.28125,0.171875 0.15625,0.15625 0.234375,0.351563 0.234375,0.578125 0,0.230469 -0.07813,0.421875 -0.234375,0.578125 z m 0,0"
           id="3a"
           stroke="none" />
      </symbol>
      <symbol
         id="1h"
         overflow="visible">
        <path
           d="m 11.140625,-7.078125 -4.0625,-4.0625 C 6.921875,-11.296875 6.726562,-11.375 6.5,-11.375 c -0.230469,0 -0.421875,0.07813 -0.578125,0.234375 l -4.0625,4.0625 C 1.703125,-6.921875 1.625,-6.726562 1.625,-6.5 c 0,0.230469 0.078125,0.421875 0.234375,0.578125 0.15625,0.15625 0.347656,0.234375 0.578125,0.234375 0.226562,0 0.421875,-0.078125 0.578125,-0.234375 L 5.6875,-8.59375 l 0,7.78125 c 0,0.230469 0.078125,0.421875 0.234375,0.578125 C 6.078125,-0.078125 6.269531,0 6.5,0 6.726562,0 6.921875,-0.078125 7.078125,-0.234375 7.234375,-0.390625 7.3125,-0.582031 7.3125,-0.8125 l 0,-7.78125 2.671875,2.671875 c 0.082031,0.085937 0.171875,0.148437 0.265625,0.1875 0.101562,0.03125 0.207031,0.046875 0.3125,0.046875 0.101562,0 0.203125,-0.015625 0.296875,-0.046875 0.101563,-0.039063 0.195313,-0.101563 0.28125,-0.1875 C 11.296875,-6.078125 11.375,-6.269531 11.375,-6.5 c 0,-0.226562 -0.07813,-0.421875 -0.234375,-0.578125 z m 0,0"
           id="3b"
           stroke="none" />
      </symbol>
      <symbol
         id="1i"
         overflow="visible">
        <path
           d="m 7.890625,-1.046875 4.0625,-4.0625 c 0.15625,-0.15625 0.234375,-0.347656 0.234375,-0.578125 0,-0.226562 -0.07813,-0.421875 -0.234375,-0.578125 l -4.0625,-4.0625 C 7.734375,-10.484375 7.539062,-10.5625 7.3125,-10.5625 c -0.230469,0 -0.421875,0.07813 -0.578125,0.234375 C 6.578125,-10.171875 6.5,-9.976562 6.5,-9.75 c 0,0.230469 0.078125,0.421875 0.234375,0.578125 L 9.40625,-6.5 1.625,-6.5 c -0.230469,0 -0.421875,0.078125 -0.578125,0.234375 -0.15625,0.15625 -0.234375,0.351563 -0.234375,0.578125 0,0.230469 0.078125,0.421875 0.234375,0.578125 C 1.203125,-4.953125 1.394531,-4.875 1.625,-4.875 l 7.78125,0 -2.671875,2.671875 c -0.085937,0.085937 -0.148437,0.179687 -0.1875,0.28125 C 6.515625,-1.828125 6.5,-1.726562 6.5,-1.625 c 0,0.105469 0.015625,0.210938 0.046875,0.3125 0.039063,0.09375 0.101563,0.183594 0.1875,0.265625 0.15625,0.15625 0.347656,0.234375 0.578125,0.234375 0.226562,0 0.421875,-0.078125 0.578125,-0.234375 z m 0,0"
           id="3c"
           stroke="none" />
      </symbol>
      <symbol
         id="1j"
         overflow="visible">
        <path
           d="m 1.375,0 0,-6.875 5.5,0 0,6.875 z m 0.171875,-0.171875 5.15625,0 0,-6.53125 -5.15625,0 z m 0,0"
           id="3d"
           stroke="none" />
      </symbol>
      <symbol
         id="1k"
         overflow="visible">
        <path
           d="m 2.21875,0 -2.078125,-7.875 1.0625,0 1.203125,5.15625 c 0.125,0.542969 0.234375,1.085938 0.328125,1.625 C 2.929688,-1.9375 3.050781,-2.425781 3.09375,-2.5625 l 1.5,-5.3125 1.25,0 1.125,3.984375 C 7.25,-2.898438 7.453125,-1.96875 7.578125,-1.09375 7.679688,-1.59375 7.8125,-2.164062 7.96875,-2.8125 l 1.25,-5.0625 1.046875,0 L 8.09375,0 l -1,0 L 5.4375,-6 C 5.289062,-6.5 5.207031,-6.804688 5.1875,-6.921875 5.101562,-6.554688 5.023438,-6.25 4.953125,-6 L 3.28125,0 Z m 0,0"
           id="3e"
           stroke="none" />
      </symbol>
      <symbol
         id="1l"
         overflow="visible">
        <path
           d="m 0.71875,0 0,-7.875 0.96875,0 0,2.828125 c 0.457031,-0.519531 1.03125,-0.78125 1.71875,-0.78125 0.414062,0 0.78125,0.085937 1.09375,0.25 0.3125,0.167969 0.535156,0.398437 0.671875,0.6875 0.132813,0.292969 0.203125,0.71875 0.203125,1.28125 L 5.375,0 4.40625,0 l 0,-3.609375 c 0,-0.488281 -0.105469,-0.84375 -0.3125,-1.0625 C 3.882812,-4.890625 3.585938,-5 3.203125,-5 c -0.292969,0 -0.5625,0.074219 -0.8125,0.21875 -0.25,0.148438 -0.433594,0.351562 -0.546875,0.609375 -0.105469,0.25 -0.15625,0.601563 -0.15625,1.046875 l 0,3.125 z m 0,0"
           id="3f"
           stroke="none" />
      </symbol>
      <symbol
         id="1m"
         overflow="visible">
        <path
           d="m 0.734375,-6.765625 0,-1.109375 0.96875,0 0,1.109375 z m 0,6.765625 0,-5.703125 0.96875,0 0,5.703125 z m 0,0"
           id="3g"
           stroke="none" />
      </symbol>
      <symbol
         id="1n"
         overflow="visible">
        <path
           d="m 2.84375,-0.859375 0.125,0.84375 C 2.695312,0.046875 2.457031,0.078125 2.25,0.078125 1.894531,0.078125 1.617188,0.0195312 1.421875,-0.09375 1.234375,-0.207031 1.097656,-0.351562 1.015625,-0.53125 0.941406,-0.707031 0.90625,-1.085938 0.90625,-1.671875 l 0,-3.28125 -0.71875,0 0,-0.75 0.71875,0 0,-1.40625 0.953125,-0.59375 0,2 0.984375,0 0,0.75 -0.984375,0 0,3.34375 c 0,0.273437 0.015625,0.449219 0.046875,0.53125 0.039062,0.074219 0.097656,0.136719 0.171875,0.1875 0.082031,0.042969 0.191406,0.0625 0.328125,0.0625 0.113281,0 0.257812,-0.007813 0.4375,-0.03125 z m 0,0"
           id="3h"
           stroke="none" />
      </symbol>
      <symbol
         id="1o"
         overflow="visible">
        <path
           d="m 4.625,-1.84375 1,0.125 C 5.46875,-1.132812 5.175781,-0.679688 4.75,-0.359375 4.320312,-0.0351562 3.78125,0.125 3.125,0.125 2.289062,0.125 1.628906,-0.128906 1.140625,-0.640625 0.648438,-1.148438 0.40625,-1.867188 0.40625,-2.796875 c 0,-0.96875 0.242188,-1.710937 0.734375,-2.234375 0.5,-0.53125 1.140625,-0.796875 1.921875,-0.796875 0.769531,0 1.394531,0.261719 1.875,0.78125 0.476562,0.511719 0.71875,1.242187 0.71875,2.1875 0,0.054687 0,0.136719 0,0.25 l -4.25,0 c 0.03125,0.625 0.203125,1.105469 0.515625,1.4375 0.320313,0.335937 0.722656,0.5 1.203125,0.5 0.351562,0 0.65625,-0.085937 0.90625,-0.265625 0.25,-0.1875 0.445312,-0.488281 0.59375,-0.90625 z m -3.171875,-1.5625 3.1875,0 C 4.597656,-3.882812 4.476562,-4.242188 4.28125,-4.484375 3.96875,-4.847656 3.566406,-5.03125 3.078125,-5.03125 c -0.449219,0 -0.824219,0.152344 -1.125,0.453125 -0.304687,0.292969 -0.46875,0.683594 -0.5,1.171875 z m 0,0"
           id="3i"
           stroke="none" />
      </symbol>
      <symbol
         id="1p"
         overflow="visible">
        <path
           d="m 0.34375,-1.703125 0.953125,-0.15625 c 0.050781,0.386719 0.195313,0.683594 0.4375,0.890625 0.25,0.199219 0.59375,0.296875 1.03125,0.296875 0.445313,0 0.773437,-0.085937 0.984375,-0.265625 0.21875,-0.175781 0.328125,-0.390625 0.328125,-0.640625 0,-0.21875 -0.09375,-0.390625 -0.28125,-0.515625 C 3.660156,-2.175781 3.332031,-2.285156 2.8125,-2.421875 2.101562,-2.597656 1.609375,-2.75 1.328125,-2.875 1.054688,-3.007812 0.847656,-3.191406 0.703125,-3.421875 0.566406,-3.648438 0.5,-3.90625 0.5,-4.1875 0.5,-4.445312 0.554688,-4.679688 0.671875,-4.890625 0.785156,-5.109375 0.945312,-5.289062 1.15625,-5.4375 1.300781,-5.550781 1.503906,-5.644531 1.765625,-5.71875 2.023438,-5.789062 2.300781,-5.828125 2.59375,-5.828125 c 0.445312,0 0.835938,0.0625 1.171875,0.1875 0.34375,0.125 0.59375,0.304687 0.75,0.53125 0.164063,0.21875 0.28125,0.511719 0.34375,0.875 l -0.9375,0.125 C 3.867188,-4.398438 3.738281,-4.625 3.53125,-4.78125 c -0.199219,-0.164062 -0.484375,-0.25 -0.859375,-0.25 -0.449219,0 -0.765625,0.074219 -0.953125,0.21875 -0.1875,0.148438 -0.28125,0.320312 -0.28125,0.515625 0,0.125 0.035156,0.234375 0.109375,0.328125 0.082031,0.105469 0.207031,0.195312 0.375,0.265625 0.09375,0.03125 0.378906,0.117187 0.859375,0.25 0.675781,0.179687 1.148438,0.324219 1.421875,0.4375 C 4.472656,-2.898438 4.6875,-2.726562 4.84375,-2.5 5,-2.28125 5.078125,-2.003906 5.078125,-1.671875 c 0,0.324219 -0.09375,0.625 -0.28125,0.90625 -0.1875,0.28125 -0.460937,0.5 -0.8125,0.65625 C 3.628906,0.046875 3.226562,0.125 2.78125,0.125 c -0.742188,0 -1.308594,-0.1484375 -1.703125,-0.453125 -0.386719,-0.3125 -0.632813,-0.769531 -0.734375,-1.375 z m 0,0"
           id="3j"
           stroke="none" />
      </symbol>
      <symbol
         id="1q"
         overflow="visible">
        <path
           d="m 0.71875,2.1875 0,-7.890625 0.890625,0 0,0.734375 C 1.816406,-5.25 2.050781,-5.460938 2.3125,-5.609375 c 0.257812,-0.144531 0.578125,-0.21875 0.953125,-0.21875 0.476563,0 0.90625,0.125 1.28125,0.375 0.375,0.25 0.65625,0.605469 0.84375,1.0625 0.1875,0.449219 0.28125,0.949219 0.28125,1.5 0,0.585937 -0.105469,1.109375 -0.3125,1.578125 C 5.148438,-0.851562 4.84375,-0.5 4.4375,-0.25 4.039062,0 3.625,0.125 3.1875,0.125 2.863281,0.125 2.570312,0.0546875 2.3125,-0.078125 2.0625,-0.210938 1.851562,-0.382812 1.6875,-0.59375 l 0,2.78125 z m 0.875,-5 c 0,0.730469 0.148438,1.273438 0.453125,1.625 0.300781,0.34375 0.660156,0.515625 1.078125,0.515625 0.425781,0 0.789062,-0.175781 1.09375,-0.53125 0.3125,-0.363281 0.46875,-0.929687 0.46875,-1.703125 0,-0.71875 -0.152344,-1.257812 -0.453125,-1.625 C 3.941406,-4.894531 3.585938,-5.078125 3.171875,-5.078125 2.753906,-5.078125 2.382812,-4.882812 2.0625,-4.5 1.75,-4.113281 1.59375,-3.550781 1.59375,-2.8125 Z m 0,0"
           id="3k"
           stroke="none" />
      </symbol>
      <symbol
         id="1r"
         overflow="visible">
        <path
           d="M 4.453125,-0.703125 C 4.085938,-0.398438 3.738281,-0.1875 3.40625,-0.0625 3.082031,0.0625 2.726562,0.125 2.34375,0.125 c -0.625,0 -1.109375,-0.1484375 -1.453125,-0.453125 -0.335937,-0.3125 -0.5,-0.703125 -0.5,-1.171875 0,-0.28125 0.0625,-0.535156 0.1875,-0.765625 0.132813,-0.226563 0.300781,-0.410156 0.5,-0.546875 C 1.285156,-2.957031 1.519531,-3.066406 1.78125,-3.140625 1.96875,-3.191406 2.253906,-3.238281 2.640625,-3.28125 3.421875,-3.375 3.992188,-3.488281 4.359375,-3.625 4.367188,-3.75 4.375,-3.832031 4.375,-3.875 4.375,-4.269531 4.28125,-4.546875 4.09375,-4.703125 3.851562,-4.921875 3.488281,-5.03125 3,-5.03125 c -0.460938,0 -0.796875,0.078125 -1.015625,0.234375 -0.210937,0.15625 -0.367187,0.4375 -0.46875,0.84375 L 0.5625,-4.078125 C 0.644531,-4.484375 0.785156,-4.8125 0.984375,-5.0625 1.179688,-5.3125 1.46875,-5.5 1.84375,-5.625 c 0.375,-0.132812 0.804688,-0.203125 1.296875,-0.203125 0.488281,0 0.882813,0.058594 1.1875,0.171875 0.300781,0.117188 0.519531,0.261719 0.65625,0.4375 0.144531,0.167969 0.25,0.382812 0.3125,0.640625 0.03125,0.167969 0.046875,0.46875 0.046875,0.90625 l 0,1.28125 c 0,0.898437 0.019531,1.464844 0.0625,1.703125 0.039062,0.242188 0.125,0.46875 0.25,0.6875 L 4.640625,0 C 4.535156,-0.195312 4.472656,-0.429688 4.453125,-0.703125 Z m -0.09375,-2.15625 C 4.015625,-2.710938 3.488281,-2.59375 2.78125,-2.5 2.382812,-2.4375 2.101562,-2.367188 1.9375,-2.296875 c -0.15625,0.0625 -0.28125,0.167969 -0.375,0.3125 -0.09375,0.136719 -0.140625,0.289063 -0.140625,0.453125 0,0.261719 0.097656,0.480469 0.296875,0.65625 0.195312,0.167969 0.484375,0.25 0.859375,0.25 0.375,0 0.703125,-0.082031 0.984375,-0.25 0.289062,-0.164062 0.507812,-0.390625 0.65625,-0.671875 0.09375,-0.21875 0.140625,-0.539063 0.140625,-0.96875 z m 0,0"
           id="3l"
           stroke="none" />
      </symbol>
      <symbol
         id="1s"
         overflow="visible">
        <path
           d="m 4.453125,-2.09375 0.9375,0.125 C 5.296875,-1.3125 5.03125,-0.796875 4.59375,-0.421875 4.164062,-0.0546875 3.644531,0.125 3.03125,0.125 2.25,0.125 1.617188,-0.128906 1.140625,-0.640625 0.671875,-1.148438 0.4375,-1.878906 0.4375,-2.828125 c 0,-0.613281 0.097656,-1.148437 0.296875,-1.609375 0.207031,-0.46875 0.519531,-0.816406 0.9375,-1.046875 0.414063,-0.226563 0.867187,-0.34375 1.359375,-0.34375 0.613281,0 1.117188,0.15625 1.515625,0.46875 0.394531,0.3125 0.648437,0.757813 0.765625,1.328125 l -0.953125,0.140625 c -0.085937,-0.375 -0.242187,-0.65625 -0.46875,-0.84375 C 3.660156,-4.929688 3.382812,-5.03125 3.0625,-5.03125 c -0.480469,0 -0.875,0.179688 -1.1875,0.53125 -0.304688,0.34375 -0.453125,0.890625 -0.453125,1.640625 0,0.773437 0.144531,1.328125 0.4375,1.671875 0.289063,0.34375 0.675781,0.515625 1.15625,0.515625 0.375,0 0.6875,-0.113281 0.9375,-0.34375 0.257813,-0.226563 0.425781,-0.585937 0.5,-1.078125 z m 0,0"
           id="3m"
           stroke="none" />
      </symbol>
      <symbol
         id="1t"
         overflow="visible">
        <path
           id="3n"
           stroke="none" />
      </symbol>
      <symbol
         id="1u"
         overflow="visible">
        <path
           d="m 0.359375,-2.859375 c 0,-1.050781 0.296875,-1.832031 0.890625,-2.34375 0.488281,-0.414063 1.085938,-0.625 1.796875,-0.625 0.78125,0 1.414063,0.257813 1.90625,0.765625 0.5,0.511719 0.75,1.21875 0.75,2.125 0,0.742188 -0.109375,1.324219 -0.328125,1.75 C 5.15625,-0.769531 4.832031,-0.445312 4.40625,-0.21875 3.988281,0.0078125 3.535156,0.125 3.046875,0.125 2.242188,0.125 1.59375,-0.128906 1.09375,-0.640625 c -0.492188,-0.507813 -0.734375,-1.25 -0.734375,-2.21875 z m 1,0 c 0,0.742187 0.15625,1.292969 0.46875,1.65625 0.320313,0.355469 0.726563,0.53125 1.21875,0.53125 0.476563,0 0.875,-0.179687 1.1875,-0.546875 0.320313,-0.363281 0.484375,-0.921875 0.484375,-1.671875 0,-0.695313 -0.164062,-1.226563 -0.484375,-1.59375 -0.324219,-0.363281 -0.71875,-0.546875 -1.1875,-0.546875 -0.492187,0 -0.898437,0.183594 -1.21875,0.546875 -0.3125,0.355469 -0.46875,0.898437 -0.46875,1.625 z m 0,0"
           id="3o"
           stroke="none" />
      </symbol>
      <symbol
         id="1v"
         overflow="visible">
        <path
           d="m 0.734375,0 0,-7.875 0.96875,0 0,4.484375 2.28125,-2.3125 1.25,0 L 3.0625,-3.59375 5.453125,0 4.265625,0 2.375,-2.921875 1.703125,-2.265625 1.703125,0 Z m 0,0"
           id="3p"
           stroke="none" />
      </symbol>
      <symbol
         id="1w"
         overflow="visible">
        <path
           d="m 0.71875,0 0,-5.703125 0.875,0 0,0.8125 c 0.414062,-0.625 1.019531,-0.9375 1.8125,-0.9375 0.34375,0 0.660156,0.0625 0.953125,0.1875 C 4.648438,-5.523438 4.863281,-5.363281 5,-5.15625 c 0.144531,0.199219 0.25,0.433594 0.3125,0.703125 0.03125,0.1875 0.046875,0.507813 0.046875,0.953125 l 0,3.5 -0.96875,0 0,-3.46875 c 0,-0.394531 -0.039063,-0.6875 -0.109375,-0.875 C 4.207031,-4.539062 4.070312,-4.695312 3.875,-4.8125 3.6875,-4.9375 3.460938,-5 3.203125,-5 c -0.40625,0 -0.761719,0.132812 -1.0625,0.390625 -0.304687,0.261719 -0.453125,0.761719 -0.453125,1.5 L 1.6875,0 Z m 0,0"
           id="3q"
           stroke="none" />
      </symbol>
      <symbol
         id="1x"
         overflow="visible">
        <path
           d="m 0.21875,0 0,-0.78125 3.625,-4.171875 C 3.4375,-4.929688 3.070312,-4.921875 2.75,-4.921875 l -2.3125,0 0,-0.78125 4.65625,0 0,0.640625 L 2,-1.4375 1.40625,-0.78125 C 1.84375,-0.8125 2.25,-0.828125 2.625,-0.828125 l 2.640625,0 0,0.828125 z m 0,0"
           id="3r"
           stroke="none" />
      </symbol>
    </g>
    <clipPath
       id="3">
      <path
         d="m 56,47 500,0 0,744.80078 -500,0 z m 0,0"
         id="1y" />
    </clipPath>
  </defs>
  <g
     id="1"
     transform="translate(-48,-39)">
    <path
       d="m 68,59 220,0 0,94.39844 -220,0 z m 0,0"
       id="4"
       style="fill:#0066c2;fill-opacity:1;fill-rule:nonzero;stroke:none" />
    <path
       d="m 68,190.19922 226.39844,0 0,104.80078 L 68,295 Z m 0,0"
       id="H"
       style="fill:#b02b23;fill-opacity:1;fill-rule:nonzero;stroke:none" />
    <path
       d="m 68,369.39844 220,0 0,94.40234 -220,0 z m 0,0"
       id="U"
       style="fill:#1e8c2b;fill-opacity:1;fill-rule:nonzero;stroke:none" />
    <path
       d="M 324.80078,59 544,59 l 0,94.39844 -219.19922,0 z m 0,0"
       id="A"
       style="fill:#3a976e;fill-opacity:1;fill-rule:nonzero;stroke:none" />
    <path
       d="M 318.39844,190.19922 544,190.19922 544,295 318.39844,295 Z m 0,0"
       id="L"
       style="fill:#85114a;fill-opacity:1;fill-rule:nonzero;stroke:none" />
    <path
       d="m 368.80078,323 124.80078,0 0,18.39844 -124.80078,0 z m 0,0"
       id="R"
       style="fill:#304a63;fill-opacity:1;fill-rule:nonzero;stroke:none" />
    <path
       d="m 369.59508,323.79612 123.20382,0 0,16.80132 -123.20382,0 z m 0,0"
       id="b"
       stroke-miterlimit="2"
       style="fill:none;fill-opacity:1;fill-rule:nonzero;stroke:#b0cfeb;stroke-width:1.59985995;stroke-linejoin:miter;stroke-miterlimit:2;stroke-dasharray:1.59986, 1.59986;stroke-dashoffset:0;stroke-opacity:1" />
    <path
       d="m 324.80078,369.39844 219.19922,0 0,94.40234 -219.19922,0 z m 0,0"
       id="W"
       style="fill:#304a63;fill-opacity:1;fill-rule:nonzero;stroke:none" />
    <g
       id="5"
       style="fill:#ffffff;fill-opacity:1">
      <use
         height="444.80078"
         id="1z"
         width="516"
         x="190.25488"
         xlink:href="#y"
         y="92.599998" />
    </g>
    <g
       id="6"
       style="fill:#ffffff;fill-opacity:1">
      <use
         height="444.80078"
         id="20"
         width="516"
         x="152.18127"
         xlink:href="#1L"
         y="130.2" />
    </g>
    <g
       id="7"
       style="fill:#ffffff;fill-opacity:1">
      <use
         height="444.80078"
         id="21"
         width="516"
         x="183.49376"
         xlink:href="#1L"
         y="130.2" />
    </g>
    <g
       id="8"
       style="fill:#ffffff;fill-opacity:1">
      <use
         height="444.80078"
         id="22"
         width="516"
         x="207.68752"
         xlink:href="#1L"
         y="130.2" />
    </g>
    <g
       id="9"
       style="fill:#000000;fill-opacity:1">
      <use
         height="444.80078"
         id="23"
         width="516"
         x="299.60001"
         xlink:href="#1f"
         y="111.8" />
    </g>
    <g
       id="B"
       style="fill:#ffffff;fill-opacity:1">
      <use
         height="444.80078"
         id="24"
         width="516"
         x="434.2048"
         xlink:href="#y"
         y="92.599998" />
    </g>
    <g
       id="C"
       style="fill:#ffffff;fill-opacity:1">
      <use
         height="444.80078"
         id="25"
         width="516"
         x="392.58127"
         xlink:href="#1L"
         y="112.6" />
    </g>
    <g
       id="D"
       style="fill:#ffffff;fill-opacity:1">
      <use
         height="444.80078"
         id="26"
         width="516"
         x="455.89377"
         xlink:href="#1L"
         y="112.6" />
    </g>
    <g
       id="E"
       style="fill:#ffffff;fill-opacity:1">
      <use
         height="444.80078"
         id="27"
         width="516"
         x="484.34375"
         xlink:href="#1L"
         y="112.6" />
    </g>
    <g
       id="F"
       style="fill:#000000;fill-opacity:1">
      <use
         height="444.80078"
         id="28"
         width="516"
         x="174.60001"
         xlink:href="#1g"
         y="177.39999" />
    </g>
    <g
       id="G"
       style="fill:#000000;fill-opacity:1">
      <use
         height="444.80078"
         id="29"
         width="516"
         x="424.60001"
         xlink:href="#1h"
         y="177.39999" />
    </g>
    <g
       id="I"
       style="fill:#ffffff;fill-opacity:1">
      <use
         height="444.80078"
         id="2A"
         width="516"
         x="152.18752"
         xlink:href="#1L"
         y="257.39999" />
    </g>
    <g
       id="J"
       style="fill:#ffffff;fill-opacity:1">
      <use
         height="444.80078"
         id="2B"
         width="516"
         x="192.73752"
         xlink:href="#1L"
         y="257.39999" />
    </g>
    <g
       id="K"
       style="fill:#ffffff;fill-opacity:1">
      <use
         height="444.80078"
         id="2C"
         width="516"
         x="206.96872"
         xlink:href="#1L"
         y="257.39999" />
    </g>
    <g
       id="M"
       style="fill:#ffffff;fill-opacity:1">
      <use
         height="444.80078"
         id="2D"
         width="516"
         x="414.97504"
         xlink:href="#1L"
         y="257.39999" />
    </g>
    <g
       id="N"
       style="fill:#ffffff;fill-opacity:1">
      <use
         height="444.80078"
         id="2E"
         width="516"
         x="486.84375"
         xlink:href="#1L"
         y="257.39999" />
    </g>
    <g
       id="O"
       style="fill:#ffffff;fill-opacity:1">
      <use
         height="444.80078"
         id="2F"
         width="516"
         x="438.11249"
         xlink:href="#1L"
         y="271.79999" />
    </g>
    <g
       id="P"
       style="fill:#000000;fill-opacity:1">
      <use
         height="444.80078"
         id="2G"
         width="516"
         x="174.60001"
         xlink:href="#1g"
         y="338.20001" />
    </g>
    <g
       id="Q"
       style="fill:#000000;fill-opacity:1">
      <use
         height="444.80078"
         id="2H"
         width="516"
         x="424.60001"
         xlink:href="#1h"
         y="319" />
    </g>
    <g
       id="S"
       style="fill:#ffffff;fill-opacity:1">
      <use
         height="444.80078"
         id="2I"
         width="516"
         x="428.91992"
         xlink:href="#1t"
         y="335.79999" />
    </g>
    <g
       id="T"
       style="fill:#000000;fill-opacity:1">
      <use
         height="444.80078"
         id="2J"
         width="516"
         x="424.60001"
         xlink:href="#1h"
         y="356.60001" />
    </g>
    <g
       id="V"
       style="fill:#000000;fill-opacity:1">
      <use
         height="444.80078"
         id="2K"
         width="516"
         x="299.60001"
         xlink:href="#1i"
         y="422.20001" />
    </g>
    <g
       id="X"
       style="fill:#ffffff;fill-opacity:1">
      <use
         height="444.80078"
         id="2L"
         width="516"
         x="408.58127"
         xlink:href="#1L"
         y="440.60001" />
    </g>
    <g
       id="Y"
       style="fill:#ffffff;fill-opacity:1">
      <use
         height="444.80078"
         id="2M"
         width="516"
         x="439.89377"
         xlink:href="#1L"
         y="440.60001" />
    </g>
    <g
       id="Z"
       style="fill:#ffffff;fill-opacity:1">
      <use
         height="444.80078"
         id="2N"
         width="516"
         x="464.08752"
         xlink:href="#1L"
         y="440.60001" />
    </g>
    <text
       id="f"
       sodipodi:linespacing="115%"
       x="177.73825"
       y="92.70726"
       font-style="normal"
       letter-spacing="0"
       word-spacing="0"
       font-stretch="normal"
       text-align="center"
       font-weight="bold"
       font-variant="normal"
       line-height="114.99999762%"
       font-size="15.1"
       style="font-style:normal;font-variant:normal;font-weight:bold;font-stretch:normal;font-size:15.10000038px;line-height:114.99999762%;font-family:Arial;text-align:center;letter-spacing:0;word-spacing:0;text-anchor:middle;fill:#ffffff;fill-opacity:1;stroke:none">
      <tspan
         sodipodi:role="line"
         id="2T"
         width="170.56979"
         x="177.73825"
         y="92.70726"
         font-style="normal"
         line-height="114.99999762%"
         font-weight="bold"
         font-stretch="normal"
         font-variant="normal"
         font-size="15.1"
         style="font-style:normal;font-variant:normal;font-weight:bold;font-stretch:normal;font-size:15.10000038px;line-height:114.99999762%;font-family:Arial;fill:#ffffff">Tacoscript Parser</tspan>
      <tspan
         sodipodi:role="line"
         width="170.56979"
         x="177.73825"
         y="110.07226"
         id="2U"
         font-style="normal"
         line-height="114.99999762%"
         font-weight="bold"
         font-stretch="normal"
         font-variant="normal"
         font-size="15.1"
         style="font-style:normal;font-variant:normal;font-weight:bold;font-stretch:normal;font-size:15.10000038px;line-height:114.99999762%;font-family:Arial;fill:#ffffff">(Horchata)</tspan>
    </text>
    <text
       id="g"
       sodipodi:linespacing="115%"
       x="177.98096"
       y="130.16219"
       font-style="normal"
       letter-spacing="0"
       word-spacing="0"
       font-stretch="normal"
       text-align="center"
       font-weight="normal"
       font-variant="normal"
       line-height="114.99999762%"
       font-size="13"
       style="font-style:normal;font-variant:normal;font-weight:normal;font-stretch:normal;font-size:13px;line-height:114.99999762%;font-family:Arial;text-align:center;letter-spacing:0;word-spacing:0;text-anchor:middle;fill:#ffffff;fill-opacity:1;stroke:none">
      <tspan
         sodipodi:role="line"
         id="2V"
         width="166.60806"
         x="177.98096"
         y="130.16219">Turns code into AST</tspan>
    </text>
    <text
       id="h"
       sodipodi:linespacing="115%"
       x="180.93748"
       y="223.72314"
       font-style="normal"
       letter-spacing="0"
       word-spacing="0"
       font-stretch="normal"
       text-align="center"
       font-weight="bold"
       font-variant="normal"
       line-height="114.99999762%"
       font-size="15.1"
       style="font-style:normal;font-variant:normal;font-weight:bold;font-stretch:normal;font-size:15.10000038px;line-height:114.99999762%;font-family:Arial;text-align:center;letter-spacing:0;word-spacing:0;text-anchor:middle;fill:#ffffff;fill-opacity:1;stroke:none">
      <tspan
         sodipodi:role="line"
         id="2W"
         width="103.66121"
         x="180.93748"
         y="223.72314">Transformer</tspan>
    </text>
    <text
       id="i"
       sodipodi:linespacing="110%"
       x="181.12939"
       y="242.97334"
       font-style="normal"
       letter-spacing="0"
       word-spacing="0"
       font-stretch="normal"
       text-align="center"
       font-weight="normal"
       font-variant="normal"
       line-height="110.00000238%"
       font-size="13"
       style="font-style:normal;font-variant:normal;font-weight:normal;font-stretch:normal;font-size:13px;line-height:110.00000238%;font-family:Arial;text-align:center;letter-spacing:0;word-spacing:0;text-anchor:middle;fill:#ffffff;fill-opacity:1;stroke:none">
      <tspan
         sodipodi:role="line"
         id="2X"
         width="177.60806"
         x="181.12939"
         y="242.97334">Manipulates AST to translate</tspan>
      <tspan
         sodipodi:role="line"
         width="177.60806"
         x="181.12939"
         y="257.27335"
         id="2Y">tacoscript syntax to javascript</tspan>
      <tspan
         sodipodi:role="line"
         width="177.60806"
         x="181.12939"
         y="271.57333"
         id="2Z">conventions</tspan>
    </text>
    <text
       id="k"
       sodipodi:linespacing="115%"
       x="177.77144"
       y="402.98764"
       font-style="normal"
       letter-spacing="0"
       word-spacing="0"
       font-stretch="normal"
       text-align="center"
       font-weight="bold"
       font-variant="normal"
       line-height="114.99999762%"
       font-size="15.1"
       style="font-style:normal;font-variant:normal;font-weight:bold;font-stretch:normal;font-size:15.10000038px;line-height:114.99999762%;font-family:Arial;text-align:center;letter-spacing:0;word-spacing:0;text-anchor:middle;fill:#ffffff;fill-opacity:1;stroke:none">
      <tspan
         sodipodi:role="line"
         id="2d"
         width="193.88803"
         x="177.77144"
         y="402.98764">Javascript Generator</tspan>
    </text>
    <text
       id="l"
       sodipodi:linespacing="115%"
       x="178.12061"
       y="423.07956"
       font-style="normal"
       letter-spacing="0"
       word-spacing="0"
       font-stretch="normal"
       text-align="center"
       font-weight="normal"
       font-variant="normal"
       line-height="114.99999762%"
       font-size="13"
       style="font-style:normal;font-variant:normal;font-weight:normal;font-stretch:normal;font-size:13px;line-height:114.99999762%;font-family:Arial;text-align:center;letter-spacing:0;word-spacing:0;text-anchor:middle;fill:#ffffff;fill-opacity:1;stroke:none">
      <tspan
         sodipodi:role="line"
         id="2e"
         width="177.60806"
         x="178.12061"
         y="423.07956">Turns AST into Code</tspan>
    </text>
    <text
       id="c"
       sodipodi:linespacing="115%"
       x="434.13864"
       y="92.457367"
       font-style="normal"
       letter-spacing="0"
       word-spacing="0"
       font-stretch="normal"
       text-align="center"
       font-weight="bold"
       font-variant="normal"
       line-height="114.99999762%"
       font-size="15.1"
       style="font-style:normal;font-variant:normal;font-weight:bold;font-stretch:normal;font-size:15.10000038px;line-height:114.99999762%;font-family:Arial;text-align:center;letter-spacing:0;word-spacing:0;text-anchor:middle;fill:#ffffff;fill-opacity:1;stroke:none">
      <tspan
         sodipodi:role="line"
         id="2P"
         width="168.44945"
         x="434.13864"
         y="92.457367">Tacoscript Generator</tspan>
    </text>
    <text
       id="e"
       sodipodi:linespacing="115%"
       x="434.49243"
       y="112.60043"
       font-style="normal"
       letter-spacing="0"
       word-spacing="0"
       font-stretch="normal"
       text-align="center"
       font-weight="normal"
       font-variant="normal"
       line-height="114.99999762%"
       font-size="13"
       style="font-style:normal;font-variant:normal;font-weight:normal;font-stretch:normal;font-size:13px;line-height:114.99999762%;font-family:Arial;text-align:center;letter-spacing:0;word-spacing:0;text-anchor:middle;fill:#ffffff;fill-opacity:1;stroke:none">
      <tspan
         sodipodi:role="line"
         id="2R"
         width="208.26007"
         x="434.49243"
         y="112.60043">Turns JavaScript AST into</tspan>
      <tspan
         sodipodi:role="line"
         width="208.26007"
         x="434.49243"
         y="127.55043"
         id="2S">Tacoscript Code</tspan>
    </text>
    <text
       id="d"
       sodipodi:linespacing="115%"
       x="430.93747"
       y="223.93407"
       font-style="normal"
       letter-spacing="0"
       word-spacing="0"
       font-stretch="normal"
       text-align="center"
       font-weight="bold"
       font-variant="normal"
       line-height="114.99999762%"
       font-size="15.1"
       style="font-style:normal;font-variant:normal;font-weight:bold;font-stretch:normal;font-size:15.10000038px;line-height:114.99999762%;font-family:Arial;text-align:center;letter-spacing:0;word-spacing:0;text-anchor:middle;fill:#ffffff;fill-opacity:1;stroke:none">
      <tspan
         sodipodi:role="line"
         id="2Q"
         width="129.57651"
         x="430.93747"
         y="223.93407">Transformer</tspan>
    </text>
    <text
       id="j"
       sodipodi:linespacing="110%"
       x="430.98975"
       y="243.02158"
       font-style="normal"
       letter-spacing="0"
       word-spacing="0"
       font-stretch="normal"
       text-align="center"
       font-weight="normal"
       font-variant="normal"
       line-height="110.00000238%"
       font-size="13"
       style="font-style:normal;font-variant:normal;font-weight:normal;font-stretch:normal;font-size:13px;line-height:110.00000238%;font-family:Arial;text-align:center;letter-spacing:0;word-spacing:0;text-anchor:middle;fill:#ffffff;fill-opacity:1;stroke:none">
      <tspan
         sodipodi:role="line"
         id="2a"
         width="177.60806"
         x="430.98975"
         y="243.02158">Manipulates AST to translate</tspan>
      <tspan
         sodipodi:role="line"
         width="177.60806"
         x="430.98975"
         y="257.32156"
         id="2b">javascript conventions to</tspan>
      <tspan
         sodipodi:role="line"
         width="177.60806"
         x="430.98975"
         y="271.62158"
         id="2c">tacoscript syntax</tspan>
    </text>
    <text
       id="a"
       sodipodi:linespacing="125%"
       x="373.44199"
       y="335.64108"
       font-style="normal"
       word-spacing="0"
       line-height="125%"
       font-weight="normal"
       font-stretch="normal"
       letter-spacing="0"
       font-variant="normal"
       font-size="10.7"
       style="font-style:normal;font-variant:normal;font-weight:normal;font-stretch:normal;font-size:10.69999981px;line-height:125%;font-family:Helvetica;letter-spacing:0;word-spacing:0;fill:#ffffff;fill-opacity:1;stroke:none">
      <tspan
         id="2O"
         sodipodi:role="line"
         x="373.44199"
         y="335.64108"
         font-style="normal"
         font-weight="normal"
         font-stretch="normal"
         font-variant="normal"
         style="font-style:normal;font-variant:normal;font-weight:normal;font-stretch:normal;font-family:Arial">Whitespace tokenization</tspan>
    </text>
    <text
       id="m"
       sodipodi:linespacing="115%"
       x="434.17181"
       y="402.93982"
       font-style="normal"
       letter-spacing="0"
       word-spacing="0"
       font-stretch="normal"
       text-align="center"
       font-weight="bold"
       font-variant="normal"
       line-height="114.99999762%"
       font-size="15.1"
       style="font-style:normal;font-variant:normal;font-weight:bold;font-stretch:normal;font-size:15.10000038px;line-height:114.99999762%;font-family:Arial;text-align:center;letter-spacing:0;word-spacing:0;text-anchor:middle;fill:#ffffff;fill-opacity:1;stroke:none">
      <tspan
         sodipodi:role="line"
         id="2f"
         width="169.26122"
         x="434.17181"
         y="402.93982">Javascript Parser</tspan>
      <tspan
         sodipodi:role="line"
         width="169.26122"
         x="434.17181"
         y="420.30481"
         id="2g">(Babylon)</tspan>
    </text>
    <text
       id="n"
       sodipodi:linespacing="115%"
       x="434.38135"
       y="440.59235"
       font-style="normal"
       letter-spacing="0"
       word-spacing="0"
       font-stretch="normal"
       text-align="center"
       font-weight="normal"
       font-variant="normal"
       line-height="114.99999762%"
       font-size="13"
       style="font-style:normal;font-variant:normal;font-weight:normal;font-stretch:normal;font-size:13px;line-height:114.99999762%;font-family:Arial;text-align:center;letter-spacing:0;word-spacing:0;text-anchor:middle;fill:#ffffff;fill-opacity:1;stroke:none">
      <tspan
         sodipodi:role="line"
         id="2h"
         x="434.38135"
         y="440.59235">Turns code into AST</tspan>
    </text>
  </g>
</svg>
